PathFileType  4	(X/Y/Z) C:\Users\antoi\Documents\MyRepositories\mobilecap\ResultsAnalysis
DataRate	CameraRate	NumFrames	NumMarkers	Units	OrigDataRate	OrigDataStartFrame	OrigNumFrames
100.0	100.0	4	51	mm	100.0	90	143
Frame#	Time	r_knee			r_shank_antsup			r_ankle			r_calc			r_5meta			r_toe			L_knee			L_shank_antsup			L_ankle			L_calc			L_5meta			L_toe			r_sh2			r_sh3			r_sh4			L_sh2			L_sh3			r_thigh1			r_thigh2			r_thigh3			r_thigh4			r_thigh5			L_thigh1			L_thigh2			L_thigh3			L_thigh4			r.ASIS			r.PSIS			L.ASIS			L.PSIS			C7			R_Shoulder			L_Shoulder			R_Sternum			L_Sternum			R_humerus			R_elbow_med			R_elbow_lat			R_forearm			R_wrist_radius			R_wrist_ulna			L_humerus			L_elbow_med			L_elbow_lat			L_forearm			L_wrist_radius			L_wrist_ulna			R_HJC			L_HJC			R_HJC_reg			L_HJC_reg			
		X1	Y1	Z1	X2	Y2	Z2	X3	Y3	Z3	X4	Y4	Z4	X5	Y5	Z5	X6	Y6	Z6	X7	Y7	Z7	X8	Y8	Z8	X9	Y9	Z9	X10	Y10	Z10	X11	Y11	Z11	X12	Y12	Z12	X13	Y13	Z13	X14	Y14	Z14	X15	Y15	Z15	X16	Y16	Z16	X17	Y17	Z17	X18	Y18	Z18	X19	Y19	Z19	X20	Y20	Z20	X21	Y21	Z21	X22	Y22	Z22	X23	Y23	Z23	X24	Y24	Z24	X25	Y25	Z25	X26	Y26	Z26	X27	Y27	Z27	X28	Y28	Z28	X29	Y29	Z29	X30	Y30	Z30	X31	Y31	Z31	X32	Y32	Z32	X33	Y33	Z33	X34	Y34	Z34	X35	Y35	Z35	X36	Y36	Z36	X37	Y37	Z37	X38	Y38	Z38	X39	Y39	Z39	X40	Y40	Z40	X41	Y41	Z41	X42	Y42	Z42	X43	Y43	Z43	X44	Y44	Z44	X45	Y45	Z45	X46	Y46	Z46	X47	Y47	Z47	X48	Y48	Z48	X49	Y49	Z49	X50	Y50	Z50	X51	Y51	Z51	

90	0.89000000	880.10654	499.17107	-31.43104	862.10212	400.31050	-41.19580	597.46386	214.09860	-73.97468	538.87500	225.36590	-135.80106	640.54226	98.00064	-19.18488	695.64135	97.97810	-63.86023	838.91665	501.09900	-306.84209	872.61463	413.83986	-292.43328	775.05254	94.57600	-267.31987	702.31046	53.91781	-214.51296	877.02050	38.31735	-304.38326	926.79179	63.91921	-248.56971	782.51197	320.10096	-50.02928	813.17321	444.85055	-6.43687	727.51947	369.43454	-11.23506	791.53387	433.29546	-329.69927	773.54313	314.22253	-329.16508	863.55321	780.55118	-4.03757	901.39631	676.57136	-11.34753	852.95884	632.41384	10.53820	757.15207	740.13870	1.05268	801.65535	633.65606	-15.00009	892.98343	750.77368	-330.13043	912.80910	614.97530	-300.47071	794.50045	727.88169	-370.08864	811.58607	599.67950	-334.88869	867.88389	964.43817	-50.80628	674.60934	1008.87122	-143.21306	890.62907	955.60337	-302.40244	682.69483	1009.32863	-238.02211	764.21029	1433.91151	-322.71469	831.96480	1458.80469	-149.86700	855.77261	1334.88050	-443.53531	880.86146	1366.10390	-262.50307	880.92760	1349.75195	-306.02629	857.77545	1348.16402	-56.55709	742.36019	1161.82087	-28.13413	768.60025	1184.92776	30.70391	823.04944	1116.25024	51.42351	851.63483	945.15936	47.32112	830.26295	957.00251	91.73118	889.56971	1186.85294	-450.86556	811.46032	1001.74964	-374.31701	840.56928	996.70314	-448.26406	892.85695	942.18396	-441.71225	940.32643	779.70128	-383.48425	909.97731	773.69563	-423.95367	782.29382	882.50213	-78.51432	797.46098	878.34617	-267.41391	795.04279	887.66097	-93.08331	809.21979	888.46507	-259.32319	
91	0.90000000	899.77773	503.05442	-33.91041	885.30733	403.83084	-42.43133	628.34068	206.16343	-73.15642	568.84201	213.68590	-134.63833	677.81355	93.31162	-17.19111	732.89685	95.84479	-62.12629	841.64452	501.39574	-308.07431	874.57297	413.94520	-293.85640	775.33050	94.68605	-267.61345	702.37642	54.48112	-214.87612	877.01945	38.18278	-304.56478	926.89570	63.71871	-248.86636	808.97737	320.52474	-50.34838	834.45939	446.86509	-8.38894	751.75930	368.22005	-12.36722	793.37218	433.90135	-330.62613	774.58186	314.88933	-329.93373	877.21406	783.67503	-5.74367	917.19289	680.57594	-13.53296	869.91263	635.44760	8.72859	771.70705	741.02206	-0.15770	818.51873	635.61807	-16.60211	900.05323	750.34891	-331.61423	917.70476	614.17893	-302.07954	800.97528	729.09666	-371.48901	816.14596	600.53519	-336.17270	878.95540	965.80590	-53.29965	685.22406	1010.46208	-144.32206	900.11371	956.32975	-304.81566	692.90342	1010.84507	-239.29173	775.20629	1435.93634	-322.64284	842.96968	1459.70780	-149.64284	866.78230	1337.64469	-444.04500	891.87353	1367.61146	-262.80426	891.91205	1351.51751	-306.39546	868.31737	1348.75303	-56.59859	752.52797	1162.58244	-29.09421	778.37251	1185.60642	29.94473	832.56220	1116.90745	51.12098	861.24396	945.88445	47.23846	839.34338	957.70011	91.33828	901.21308	1189.83162	-451.41071	823.27815	1004.43583	-375.37258	853.08295	999.45664	-449.09926	905.47709	945.09318	-441.99835	952.29883	782.50392	-383.44792	922.89123	776.53213	-424.24166	793.02535	884.00284	-80.15345	806.97965	879.42801	-269.14005	805.62316	888.93888	-95.18153	819.06249	889.60944	-261.34950	
92	0.91000000	918.87365	506.85417	-36.65846	908.22023	407.37064	-43.98745	660.04872	197.75260	-72.51292	599.73699	201.48068	-133.64530	715.85895	88.54107	-15.56463	770.80525	93.70509	-60.80744	844.34760	501.72228	-309.42639	876.48647	414.07445	-295.39978	775.61515	94.86113	-268.01560	702.44028	55.17696	-215.25792	877.03051	38.01852	-304.78063	926.98249	63.48806	-249.21620	835.52840	320.84246	-51.01532	855.25569	448.57082	-10.60828	775.90840	366.52363	-13.73347	795.19585	434.53642	-331.66245	775.53053	315.57604	-330.72512	890.80282	786.69144	-7.63686	932.73502	684.44954	-16.05277	886.63727	638.44528	6.68136	786.22646	741.98468	-1.30452	835.03164	637.65839	-18.27545	907.03181	749.94958	-333.07386	922.59237	613.44574	-303.77136	807.51300	730.27225	-372.90467	820.76580	601.39589	-337.60441	890.07179	967.03215	-55.79185	695.83974	1011.88107	-145.29148	909.83716	957.08283	-307.19468	703.08314	1012.28434	-240.47354	786.22425	1437.86421	-322.43011	853.98552	1460.43316	-149.28738	877.66041	1340.44344	-444.52409	902.83524	1369.01923	-263.05675	902.83930	1353.22380	-306.72897	878.88500	1349.10552	-56.57638	762.74355	1163.09726	-30.00163	788.19902	1186.03930	29.23620	842.16245	1117.32731	50.82900	870.94551	946.37175	47.12172	848.56397	958.15264	90.93587	912.66726	1192.82861	-452.05389	834.90504	1007.13255	-376.44425	865.43714	1002.23314	-449.95066	917.94585	948.03696	-442.37374	964.26262	785.36742	-383.54286	935.72423	779.41615	-424.57640	803.86868	885.33285	-81.80786	816.63176	880.49575	-270.87608	816.38641	890.04250	-97.31092	829.03219	890.74404	-263.39757	
93	0.92000000	937.33508	510.51668	-39.62234	930.76406	410.86526	-45.87635	692.56830	189.03937	-72.10408	631.57225	188.94885	-132.88831	754.57881	83.83911	-14.37691	809.20110	91.64524	-59.99763	847.01438	502.07445	-310.87871	878.31454	414.20804	-297.05241	775.89752	95.09203	-268.50018	702.50402	55.98398	-215.60713	877.05252	37.82166	-305.02515	927.05983	63.23360	-249.61066	862.11434	321.03937	-52.06077	875.56740	449.85998	-13.02147	800.02110	364.28377	-15.27575	796.97553	435.19588	-332.78121	776.35516	316.28757	-331.48557	904.29872	789.55555	-9.70498	947.95916	688.14440	-18.91906	903.07380	641.35424	4.40388	800.70793	743.01610	-2.37995	851.16441	639.71954	-20.01397	913.91709	749.55270	-334.54315	927.47878	612.75961	-305.55499	814.08106	731.40140	-374.33851	825.42699	602.25140	-339.16497	901.21765	968.11827	-58.23646	706.47334	1013.09537	-146.12615	919.78175	957.82456	-309.49238	713.25255	1013.60850	-241.55283	797.24830	1439.69158	-322.07865	865.00759	1460.96841	-148.80237	888.43825	1343.25141	-444.96303	913.75678	1370.31819	-263.25527	913.72266	1354.86171	-307.01946	889.47783	1349.21981	-56.48241	773.02749	1163.34259	-30.87646	798.08770	1186.20233	28.56203	851.85835	1117.49246	50.53943	880.75188	946.60245	46.97321	857.93246	958.34311	90.52945	923.92350	1195.81165	-452.80289	846.27260	1009.80736	-377.56715	877.62202	1005.00269	-450.82689	930.25518	950.98698	-442.84874	976.29656	788.30377	-383.75920	948.47597	782.34628	-424.97109	814.81712	886.48317	-83.43452	826.42914	881.50815	-272.57680	827.32864	890.94767	-99.42309	839.13080	891.83571	-265.41799	
